<?xml version="1.0" standalone="no"?>
<!DOCTYPE svg PUBLIC "-//W3C//DTD SVG 20010904//EN"
 "http://www.w3.org/TR/2001/REC-SVG-20010904/DTD/svg10.dtd">
<svg version="1.0" xmlns="http://www.w3.org/2000/svg"
 width="16.000000pt" height="16.000000pt" viewBox="0 0 16.000000 16.000000"
 preserveAspectRatio="xMidYMid meet">
<metadata>
Created by potrace 1.11, written by Peter Selinger 2001-2013
</metadata>
<g transform="translate(0.000000,16.000000) scale(0.002286,-0.002286)"
fill="#000000" stroke="none">
<path d="M3197 6884 c-1 -1 -40 -5 -87 -9 -80 -5 -308 -32 -353 -41 -12 -2
-37 -6 -57 -9 -360 -57 -829 -213 -1169 -392 -154 -80 -184 -103 -212 -160
-65 -135 24 -311 169 -330 52 -7 107 11 222 73 185 99 430 201 630 263 78 24
291 78 340 86 19 3 71 12 115 20 44 8 107 17 140 20 33 4 67 8 75 10 92 23
682 24 831 1 13 -3 49 -7 79 -11 30 -4 64 -9 75 -11 11 -2 39 -6 62 -9 68 -8
278 -54 394 -85 131 -36 351 -109 364 -121 5 -5 15 -9 23 -9 8 0 80 -31 161
-69 189 -90 308 -125 402 -119 148 11 203 100 175 285 -9 60 -13 64 -109 115
-352 187 -732 324 -1122 404 -104 21 -216 43 -250 48 -16 3 -43 7 -60 10 -54
9 -156 20 -290 32 -71 6 -543 13 -548 8z"/>
<path d="M3258 6075 c-2 -1 -56 -6 -121 -9 -65 -4 -126 -9 -135 -11 -9 -1 -44
-6 -77 -10 -92 -11 -98 -12 -130 -18 -16 -3 -46 -9 -65 -11 -19 -3 -46 -8 -60
-11 -14 -3 -37 -7 -52 -10 -467 -86 -1033 -353 -1478 -697 -263 -203 -548
-501 -714 -746 -43 -62 -50 -81 -54 -130 -5 -66 16 -117 65 -164 68 -64 189
-87 261 -48 51 27 62 37 107 100 108 149 324 382 493 531 318 279 703 495
1117 626 61 19 117 36 125 38 8 2 62 15 120 28 58 14 125 29 150 33 25 4 47 8
50 9 7 2 101 16 130 19 57 8 140 16 205 22 75 6 387 6 445 0 19 -2 69 -7 110
-10 77 -6 101 -9 180 -21 77 -11 139 -21 175 -29 28 -6 156 -35 180 -41 60
-14 171 -49 180 -57 5 -4 17 -8 26 -8 10 0 79 -25 154 -55 418 -168 765 -394
1065 -695 125 -125 203 -217 230 -270 11 -22 48 -67 83 -101 201 -197 413
-165 455 68 l9 52 -60 93 c-181 281 -446 562 -737 782 -124 95 -286 206 -298
206 -6 0 -12 3 -14 8 -12 27 -343 196 -531 271 -162 64 -422 147 -522 167 -11
2 -42 8 -70 14 -27 6 -61 13 -75 15 -42 9 -213 36 -250 41 -19 2 -55 6 -80 9
-116 14 -170 17 -372 20 -120 1 -219 1 -220 0z"/>
<path d="M3278 5275 c-2 -1 -43 -5 -93 -9 -49 -3 -101 -8 -114 -11 -14 -2 -47
-7 -74 -10 -28 -3 -81 -12 -118 -20 -38 -8 -81 -17 -96 -20 -39 -6 -244 -63
-268 -74 -11 -5 -60 -23 -110 -41 -386 -139 -796 -416 -1075 -726 -195 -216
-383 -530 -486 -809 -35 -96 -97 -321 -108 -395 -3 -19 -7 -44 -10 -55 -2 -11
-7 -45 -11 -75 -3 -30 -8 -66 -10 -80 -16 -113 -22 -507 -11 -655 25 -317 75
-572 168 -850 64 -190 86 -235 136 -268 128 -84 297 -4 318 151 5 40 0 67 -31
158 -21 60 -41 123 -45 139 -4 17 -15 57 -24 90 -37 135 -84 410 -102 595 -12
120 -4 465 13 585 3 22 6 51 8 65 1 14 12 74 24 134 48 238 173 545 295 724
183 270 468 521 787 695 188 102 471 206 664 242 216 41 258 45 475 50 239 4
356 -10 672 -80 83 -18 262 -76 353 -113 159 -66 480 -254 547 -320 9 -10 31
-28 50 -42 54 -40 250 -240 308 -313 87 -112 156 -223 238 -382 118 -231 178
-383 202 -513 5 -32 12 -68 15 -82 14 -71 22 -388 11 -440 -3 -14 -9 -41 -12
-60 -3 -19 -21 -67 -40 -106 -162 -344 -712 -430 -1012 -159 -141 129 -181
226 -197 490 -16 246 -99 440 -262 610 -146 153 -372 275 -572 310 -19 3 -37
7 -40 9 -23 14 -311 23 -351 11 -8 -2 -35 -7 -60 -10 -88 -10 -199 -44 -290
-88 -317 -152 -500 -415 -565 -811 -13 -80 -14 -393 -2 -445 4 -12 9 -43 11
-68 16 -131 104 -413 185 -588 156 -338 300 -549 540 -785 53 -52 119 -113
146 -135 28 -22 52 -42 55 -45 3 -3 32 -26 65 -51 284 -215 643 -389 998 -484
l91 -25 52 40 c174 131 164 283 -26 403 -68 43 -133 72 -325 149 -316 126
-520 260 -749 492 -207 210 -352 432 -461 701 -36 89 -78 228 -90 294 -3 19
-7 37 -9 40 -4 7 -12 50 -21 126 -4 28 -11 68 -15 90 -9 42 -6 198 5 250 40
190 173 378 315 446 131 63 321 78 475 38 166 -44 324 -161 394 -291 40 -76
57 -145 60 -253 5 -205 69 -406 182 -571 57 -83 201 -216 304 -282 86 -53 241
-118 330 -136 17 -4 41 -9 55 -11 91 -19 254 -24 365 -12 319 36 613 208 770
452 66 102 117 225 140 335 2 8 8 35 14 60 19 86 26 176 25 340 -1 309 -67
570 -225 895 -100 206 -176 328 -316 513 -93 121 -111 141 -252 282 -261 259
-549 446 -909 589 -219 87 -525 164 -737 186 -33 3 -78 9 -100 12 -40 5 -432
13 -437 8z"/>
<path d="M3217 4459 c-27 -4 -70 -10 -95 -14 -100 -13 -386 -92 -417 -114 -5
-4 -37 -18 -70 -31 -81 -32 -192 -91 -295 -158 -431 -277 -739 -721 -816
-1174 -8 -51 -17 -104 -20 -118 -25 -133 -25 -605 1 -682 2 -7 6 -37 10 -66 3
-30 10 -73 15 -95 5 -23 11 -53 13 -67 3 -14 19 -78 36 -143 139 -515 433
-1024 831 -1440 71 -74 131 -127 160 -142 166 -84 320 20 320 215 0 101 -64
211 -149 254 -15 8 -47 38 -73 68 -25 29 -56 64 -68 78 -174 196 -397 568
-494 825 -21 55 -42 109 -47 120 -4 11 -19 58 -33 105 -71 241 -96 423 -91
675 2 99 5 189 8 200 3 11 8 44 12 74 20 148 100 355 191 494 80 122 209 265
304 336 19 14 37 29 40 32 18 21 172 114 260 157 220 107 427 156 665 156 84
0 232 -11 244 -19 4 -2 22 -6 41 -9 82 -13 266 -68 345 -102 369 -158 670
-491 789 -871 26 -84 52 -211 47 -228 -2 -5 -5 -35 -6 -67 -5 -90 37 -191 110
-264 128 -128 277 -93 357 84 29 63 29 68 24 181 -3 64 -8 132 -11 151 -5 31
-16 96 -20 110 0 3 -4 23 -9 45 -12 63 -61 212 -100 303 -166 386 -483 728
-859 926 -185 98 -339 147 -627 203 -110 21 -423 28 -523 12z"/>
<path d="M3375 2839 c-53 -12 -80 -26 -113 -60 -50 -51 -81 -129 -76 -189 1
-19 5 -68 8 -109 6 -77 24 -200 31 -211 2 -3 6 -17 8 -31 16 -86 51 -191 110
-329 175 -408 509 -758 902 -944 114 -54 254 -96 433 -131 41 -8 203 -16 382
-19 310 -6 437 19 519 103 71 71 84 141 49 266 -16 57 -21 61 -101 82 -72 18
-229 22 -577 13 -151 -4 -212 5 -365 55 -218 71 -352 152 -504 305 -201 203
-322 430 -418 785 -3 11 -6 61 -8 110 -3 135 -30 200 -111 261 -41 31 -126 53
-169 43z"/>
</g>
</svg>
