<?xml version="1.0" encoding="UTF-8"?>
<svg width="243.3" height="32.35" version="1.1" viewBox="0 0 243.3 32.349998" xml:space="preserve" xmlns="http://www.w3.org/2000/svg" xmlns:cc="http://creativecommons.org/ns#" xmlns:dc="http://purl.org/dc/elements/1.1/" xmlns:rdf="http://www.w3.org/1999/02/22-rdf-syntax-ns#"><metadata><rdf:RDF><cc:Work rdf:about=""><dc:format>image/svg+xml</dc:format><dc:type rdf:resource="http://purl.org/dc/dcmitype/StillImage"/><dc:title/></cc:Work></rdf:RDF></metadata><g transform="matrix(1.25,0,0,-1.25,0,32.35)"><g transform="scale(.1)" fill="#fff"><path d="m939.09 252.52h14.273l26.157-33.582h0.144v33.582h14.278v-54.926h-14.278l-26.152 33.656h-0.149v-33.656h-14.273v54.926"/><path d="m1014 216.24c0-4.734 3.13-8.371 8.52-8.371s8.52 3.637 8.52 8.371c0 4.59-3.13 8.453-8.52 8.453s-8.52-3.863-8.52-8.453zm29.87-18.648h-13.26v4.156h-0.15c-2.33-3.719-6.91-5.394-11.29-5.394-11.07 0-18.87 9.246-18.87 19.964 0 10.711 7.65 19.883 18.72 19.883 4.3 0 8.82-1.601 11.59-4.879v3.641h13.26v-37.371"/><path d="m1067.2 197.59h-13.25v26.445h-4.3v10.926h4.3v11.223h13.25v-11.223h7.51v-10.926h-7.51v-26.445"/><path d="m1092.1 197.59h-13.25v37.371h13.25v-37.371zm0.8 51.723c0-4.079-3.35-7.43-7.43-7.43s-7.43 3.351-7.43 7.43c0 4.082 3.35 7.429 7.43 7.429s7.43-3.347 7.43-7.429"/><path d="m1112.1 216.24c0-4.734 3.13-8.371 8.52-8.371 5.4 0 8.53 3.637 8.53 8.371 0 4.59-3.13 8.453-8.53 8.453-5.39 0-8.52-3.863-8.52-8.453zm31.03 0c0-12.672-10.49-19.886-22.51-19.886-11.94 0-22.51 7.144-22.51 19.886 0 12.746 10.49 19.961 22.51 19.961s22.51-7.215 22.51-19.961"/><path d="m1162.4 230.15h0.14c3.06 4.52 6.78 6.047 11.95 6.047 10.05 0 14.06-6.336 14.06-15.508v-23.101h-13.26v18.215c0 3.57 0.59 9.832-5.97 9.832-5.39 0-6.92-4.004-6.92-8.668v-19.379h-13.26v37.371h13.26v-4.809"/><path d="m1208.3 216.24c0-4.734 3.14-8.371 8.53-8.371 5.38 0 8.52 3.637 8.52 8.371 0 4.59-3.14 8.453-8.52 8.453-5.39 0-8.53-3.863-8.53-8.453zm29.87-18.648h-13.26v4.156h-0.15c-2.32-3.719-6.91-5.394-11.29-5.394-11.07 0-18.86 9.246-18.86 19.964 0 10.711 7.64 19.883 18.72 19.883 4.3 0 8.81-1.601 11.58-4.879v3.641h13.26v-37.371"/><path d="m1246.9 197.59h13.27v60.469h-13.27v-60.469z"/><path d="m1294.2 197.59h14.281v54.926h-14.281v-54.926z"/><path d="m1330.8 230.15h0.15c3.06 4.52 6.77 6.047 11.95 6.047 10.05 0 14.05-6.336 14.05-15.508v-23.101h-13.26v18.215c0 3.57 0.59 9.832-5.97 9.832-5.39 0-6.92-4.004-6.92-8.668v-19.379h-13.26v37.371h13.26v-4.809"/><path d="m1390.4 225.34c-2.05 1.101-4.88 1.828-7.15 1.828-1.53 0-4.15-0.648-4.15-2.555 0-2.55 4.15-2.902 5.98-3.273 6.19-1.238 10.85-4.156 10.85-11.07 0-9.836-8.96-13.918-17.63-13.918-5.32 0-10.57 1.535-15.08 4.3l4.81 9.246c2.69-1.89 7.21-3.793 10.49-3.793 1.68 0 4.15 0.805 4.15 2.848 0 2.914-4.15 3.063-8.3 4.16-4.16 1.082-8.31 3.125-8.31 9.832 0 9.176 8.31 13.254 16.46 13.254 4.23 0 8.45-0.656 12.32-2.406l-4.44-8.453"/><path d="m1417.6 197.59h-13.25v26.445h-4.3v10.926h4.3v11.223h13.25v-11.223h7.51v-10.926h-7.51v-26.445"/><path d="m1442.5 197.59h-13.26v37.371h13.26v-37.371zm0.8 51.723c0-4.079-3.35-7.43-7.43-7.43s-7.43 3.351-7.43 7.43c0 4.082 3.35 7.429 7.43 7.429s7.43-3.347 7.43-7.429"/><path d="m1465.8 197.59h-13.25v26.445h-4.3v10.926h4.3v11.223h13.25v-11.223h7.51v-10.926h-7.51v-26.445"/><path d="m1490.5 234.96v-19.961c0-4.73 1.17-8.09 6.63-8.09 5.48 0 6.64 3.36 6.64 8.09v19.961h13.25v-22.52c0-12.3-8.67-16.089-19.89-16.089-11.21 0-19.88 3.789-19.88 16.089v22.52h13.25"/><path d="m1540 197.59h-13.26v26.445h-4.29v10.926h4.29v11.223h13.26v-11.223h7.51v-10.926h-7.51v-26.445"/><path d="m1577.8 221.71c-0.66 3.562-3.93 5.887-7.5 5.887-3.87 0-7.07-2.032-7.87-5.887h15.37zm12.31-7.656h-27.89c0-5.395 2.83-8.297 8.3-8.297 2.83 0 4.87 0.941 6.34 3.414h12.74c-2.11-8.813-10.49-12.82-19.02-12.82-12.38 0-21.64 6.992-21.64 19.886 0 12.457 8.53 19.961 20.7 19.961 12.97 0 20.47-8.011 20.47-20.758v-1.386"/><path d="m1632.4 216.24c0-4.734 3.13-8.371 8.52-8.371 5.4 0 8.53 3.637 8.53 8.371 0 4.59-3.13 8.453-8.53 8.453-5.39 0-8.52-3.863-8.52-8.453zm31.03 0c0-12.672-10.49-19.886-22.51-19.886-11.94 0-22.51 7.144-22.51 19.886 0 12.746 10.49 19.961 22.51 19.961s22.51-7.215 22.51-19.961"/><path d="m1684 197.59h-13.25v26.445h-4.68v10.926h4.68v4.738c0 5.168 0.13 8.953 3.78 13.114 3.28 3.863 8.01 5.968 13.04 5.968 2.03 0 3.86-0.363 5.68-1.308v-11.438c-1.52 0.656-2.91 1.235-4.67 1.235-3.41 0-4.58-2.036-4.58-6.262v-6.047h9.25v-10.926h-9.25v-26.445"/><path d="m969.25 150.47c-2.629 2.179-5.973 3.629-9.465 3.629-2.629 0-6.125-1.532-6.125-4.582 0-3.207 3.856-4.442 6.34-5.246l3.641-1.094c7.652-2.254 13.551-6.11 13.551-15.004 0-5.461-1.317-11.074-5.68-14.793-4.297-3.629-10.059-5.164-15.594-5.164-6.918 0-13.695 2.328-19.301 6.262l6.114 11.511c3.57-3.133 7.8-5.683 12.675-5.683 3.356 0 6.918 1.668 6.918 5.535 0 4-5.601 5.394-8.664 6.262-8.957 2.55-14.863 4.882-14.863 15.523 0 11.145 7.945 18.422 18.945 18.422 5.535 0 12.305-1.742 17.196-4.512l-5.688-11.066"/><path d="m998.17 109.66h-13.258v26.453h-4.297v10.918h4.297v11.231h13.258v-11.231h7.502v-10.918h-7.502v-26.453"/><path d="m1020.9 128.31c0-4.727 3.12-8.372 8.52-8.372 5.39 0 8.52 3.645 8.52 8.372 0 4.589-3.13 8.457-8.52 8.457-5.4 0-8.52-3.868-8.52-8.457zm29.86-18.649h-13.25v4.156h-0.15c-2.34-3.718-6.92-5.386-11.29-5.386-11.07 0-18.88 9.238-18.88 19.957 0 10.714 7.66 19.879 18.73 19.879 4.3 0 8.82-1.59 11.59-4.868v3.633h13.25v-37.371"/><path d="m1072.8 142.23h0.15c3.06 4.523 6.78 6.043 11.95 6.043 10.05 0 14.06-6.325 14.06-15.5v-23.106h-13.26v18.215c0 3.57 0.59 9.836-5.97 9.836-5.4 0-6.93-4.008-6.93-8.668v-19.383h-13.25v37.371h13.25v-4.808"/><path d="m1119.2 128.31c0-4.727 3.14-8.372 8.53-8.372 5.38 0 8.52 3.645 8.52 8.372 0 4.589-3.14 8.457-8.52 8.457-5.39 0-8.53-3.868-8.53-8.457zm16.61-14.493h-0.15c-2.32-3.718-6.92-5.386-11.28-5.386-11.08 0-18.87 9.238-18.87 19.957 0 10.714 7.64 19.879 18.72 19.879 4.3 0 8.81-1.59 11.58-4.868v26.735h13.26v-60.473h-13.26v4.156"/><path d="m1168.4 128.31c0-4.727 3.13-8.372 8.52-8.372s8.52 3.645 8.52 8.372c0 4.589-3.13 8.457-8.52 8.457s-8.52-3.868-8.52-8.457zm29.86-18.649h-13.26v4.156h-0.14c-2.33-3.718-6.92-5.386-11.29-5.386-11.08 0-18.87 9.238-18.87 19.957 0 10.714 7.65 19.879 18.72 19.879 4.3 0 8.82-1.59 11.58-4.868v3.633h13.26v-37.371"/><path d="m1220.4 140.92h0.15c2.54 4.582 6.91 6.621 12.08 6.621h2.56v-12.738c-1.83 1.015-3.58 1.242-5.62 1.242-7.36 0-9.17-4.891-9.17-11.301v-15.082h-13.26v37.371h13.26v-6.113"/><path d="m1251.6 128.31c0-4.727 3.13-8.372 8.52-8.372 5.4 0 8.53 3.645 8.53 8.372 0 4.589-3.13 8.457-8.53 8.457-5.39 0-8.52-3.868-8.52-8.457zm16.6-14.493h-0.14c-2.33-3.718-6.92-5.386-11.29-5.386-11.08 0-18.87 9.238-18.87 19.957 0 10.714 7.65 19.879 18.73 19.879 4.29 0 8.81-1.59 11.57-4.868v26.735h13.26v-60.473h-13.26v4.156"/><path d="m1314.5 137.42c-2.03 1.098-4.88 1.82-7.13 1.82-1.53 0-4.15-0.644-4.15-2.551 0-2.55 4.15-2.902 5.96-3.277 6.2-1.234 10.87-4.148 10.87-11.07 0-9.828-8.97-13.91-17.64-13.91-5.32 0-10.56 1.527-15.08 4.293l4.81 9.246c2.7-1.883 7.21-3.789 10.49-3.789 1.68 0 4.15 0.804 4.15 2.843 0 2.914-4.15 3.071-8.3 4.161-4.15 1.082-8.3 3.125-8.3 9.835 0 9.176 8.3 13.247 16.46 13.247 4.22 0 8.45-0.645 12.31-2.395l-4.45-8.453"/><path d="m1363.1 128.31c0-4.727 3.14-8.372 8.53-8.372s8.53 3.645 8.53 8.372c0 4.589-3.14 8.457-8.53 8.457s-8.53-3.868-8.53-8.457zm29.88-18.649h-13.26v4.156h-0.15c-2.32-3.718-6.92-5.386-11.28-5.386-11.08 0-18.88 9.238-18.88 19.957 0 10.714 7.65 19.879 18.73 19.879 4.3 0 8.81-1.59 11.58-4.868v3.633h13.26v-37.371"/><path d="m1415.1 142.23h0.15c3.05 4.523 6.77 6.043 11.94 6.043 10.06 0 14.06-6.325 14.06-15.5v-23.106h-13.25v18.215c0 3.57 0.57 9.836-5.98 9.836-5.39 0-6.92-4.008-6.92-8.668v-19.383h-13.27v37.371h13.27v-4.808"/><path d="m1461.5 128.31c0-4.727 3.14-8.372 8.52-8.372 5.4 0 8.53 3.645 8.53 8.372 0 4.589-3.13 8.457-8.53 8.457-5.38 0-8.52-3.868-8.52-8.457zm16.61-14.493h-0.14c-2.34-3.718-6.92-5.386-11.3-5.386-11.07 0-18.87 9.238-18.87 19.957 0 10.714 7.66 19.879 18.73 19.879 4.3 0 8.81-1.59 11.58-4.868v26.735h13.27v-60.473h-13.27v4.156"/><path d="m1546.8 109.66h-14.28v42.848h-11.81v12.093h37.89v-12.093h-11.8v-42.848"/><path d="m1584.2 133.79c-0.65 3.563-3.93 5.887-7.5 5.887-3.87 0-7.07-2.031-7.87-5.887h15.37zm12.31-7.656h-27.9c0-5.399 2.84-8.301 8.31-8.301 2.84 0 4.88 0.941 6.34 3.414h12.74c-2.11-8.812-10.49-12.812-19.01-12.812-12.39 0-21.64 6.984-21.64 19.879 0 12.46 8.52 19.957 20.69 19.957 12.97 0 20.47-8.004 20.47-20.754v-1.383"/><path d="m1629.5 134.87c-1.96 1.457-4.29 2.625-6.85 2.625-5.09 0-9.1-3.937-9.1-9.105 0-5.395 3.86-9.184 9.33-9.184 2.33 0 4.87 0.953 6.62 2.551v-11.215c-2.91-1.465-6.11-2.109-9.32-2.109-11.08 0-20.32 8.222-20.32 19.527 0 12.008 9.17 20.309 20.9 20.309 3.06 0 6.12-0.727 8.74-2.18v-11.219"/><path d="m1651 170.14v-27.836h0.15c3.06 4.086 6.77 5.969 11.94 5.969 9.48 0 14.06-6.262 14.06-15.727v-22.879h-13.25v19.16c0 4.379-0.66 8.891-5.98 8.891-5.24 0-6.92-4.512-6.92-8.891v-19.16h-13.25v60.473h13.25"/><path d="m1699.1 142.23h0.15c3.06 4.523 6.78 6.043 11.95 6.043 10.05 0 14.06-6.325 14.06-15.5v-23.106h-13.26v18.215c0 3.57 0.59 9.836-5.97 9.836-5.39 0-6.93-4.008-6.93-8.668v-19.383h-13.25v37.371h13.25v-4.808"/><path d="m1745.2 128.31c0-4.727 3.13-8.372 8.52-8.372 5.4 0 8.52 3.645 8.52 8.372 0 4.589-3.12 8.457-8.52 8.457-5.39 0-8.52-3.868-8.52-8.457zm31.03 0c0-12.672-10.49-19.879-22.51-19.879-11.94 0-22.51 7.144-22.51 19.879 0 12.753 10.49 19.957 22.51 19.957s22.51-7.204 22.51-19.957"/><path d="m1782.2 109.66h13.25v60.473h-13.25v-60.473z"/><path d="m1815.5 128.31c0-4.727 3.13-8.372 8.52-8.372s8.53 3.645 8.53 8.372c0 4.589-3.14 8.457-8.53 8.457s-8.52-3.868-8.52-8.457zm31.03 0c0-12.672-10.48-19.879-22.51-19.879-11.95 0-22.51 7.144-22.51 19.879 0 12.753 10.5 19.957 22.51 19.957 12.03 0 22.51-7.204 22.51-19.957"/><path d="m1863.6 128.6c0-4.726 3.14-8.375 8.54-8.375 5.38 0 8.52 3.649 8.52 8.375 0 4.598-3.14 8.461-8.52 8.461-5.4 0-8.54-3.863-8.54-8.461zm29.88-15.296c0-15.879-7.87-22.282-21.64-22.282-8.6 0-20.11 4.4336-21.28 14.262h14.87c0.37-1.305 1.31-2.258 2.48-2.832 1.16-0.582 2.54-0.875 3.78-0.875 7.14 0 8.53 4.66 8.53 10.719v1.742c-3.43-3.43-6.92-5.098-11.88-5.098-10.93 0-18.43 8.301-18.43 19.078 0 10.922 7.73 20.247 19.16 20.247 4.38 0 8.38-1.45 11.01-5.165h0.14v3.93h13.26v-33.726"/><path d="m1896.3 147.04h15.3l9.98-19.156 9.76 19.156h15.07l-29.93-56.008h-14.86l12.75 23.746-18.07 32.262"/><path d="m945.94 41.449c0-4.0859-0.153-8.7304 2.402-12.238 2.402-3.3437 7.062-5.2461 11.066-5.2461 3.938 0 8.235 1.8204 10.785 4.8868 2.914 3.4922 2.7 8.3007 2.7 12.598v32.719h6.113v-34.387c0-5.9766-0.434-10.719-4.809-15.23-3.789-4.082-9.246-6.2617-14.789-6.2617-5.168 0-10.488 1.9609-14.199 5.6054-4.809 4.5938-5.394 9.6172-5.394 15.887v34.387h6.125v-32.719"/><path d="m999.62 22.43c0-2.2539-1.812-4.1406-4.07-4.1406-2.254 0-4.082 1.8867-4.082 4.1406 0 2.1992 1.828 4.0156 4.082 4.0156 2.258 0 4.07-1.8164 4.07-4.0156"/><path d="m1037.2 63.449c-2.19 3.7891-4.81 5.9766-9.47 5.9766-4.87 0-9.1-3.4961-9.1-8.5235 0-4.7382 4.89-6.9218 8.59-8.6015l3.64-1.5977c7.15-3.1328 13.19-6.707 13.19-15.434 0-9.6172-7.72-16.98-17.26-16.98-8.82 0-15.38 5.6757-17.12 14.199l5.98 1.6836c0.79-5.6172 5.09-10.207 10.99-10.207s11.29 4.5235 11.29 10.715c0 6.4062-5.02 8.5976-10.12 10.93l-3.36 1.4492c-6.4 2.9219-11.95 6.1953-11.95 14.066 0 8.5234 7.22 13.98 15.38 13.98 6.12 0 11.29-3.1289 14.21-8.5157l-4.89-3.1406"/><path d="m1062.8 22.43c0-2.2539-1.82-4.1406-4.08-4.1406-2.25 0-4.08 1.8867-4.08 4.1406 0 2.1992 1.83 4.0156 4.08 4.0156 2.26 0 4.08-1.8164 4.08-4.0156"/><path d="m1108.5 24.914c6.71 0 12.31 0.9531 17.34 5.6836 4.51 4.2187 6.85 9.9765 6.85 16.102 0 6.2696-2.4 12.316-7.14 16.457-5.03 4.4531-10.56 5.3164-17.05 5.3164h-4.44v-43.559h4.44zm-10.57 49.254h10.36c8.22 0 14.92-1.1016 21.41-6.6328 6.27-5.4024 9.11-12.75 9.11-20.902 0-8.0234-2.92-15.098-8.96-20.473-6.56-5.8243-13.11-6.9258-21.71-6.9258h-10.21v54.934"/><path d="m1171 40.066c-0.8 4.9531-4.96 8.9609-10.06 8.9609-5.02 0-9.68-4.0078-10.42-8.9609h20.48zm-20.76-4.957c0.07-6.3399 4.58-11.434 11.21-11.434 4.96 0 8.16 2.9844 10.42 7.0664l4.95-2.8359c-3.28-6.1211-8.81-9.6172-15.81-9.6172-10.19 0-16.75 7.789-16.75 17.625 0 10.129 5.9 18.508 16.62 18.508 10.99 0 16.82-9.1055 16.23-19.312h-26.87"/><path d="m1190.3 36.719c0-6.7032 3.94-13.043 11.23-13.043 7.49 0 11.43 6.0469 11.43 12.969 0 6.8477-4.3 12.383-11.51 12.383-6.77 0-11.15-5.8984-11.15-12.308zm0.29 11.875h0.15c2.84 3.789 7.07 5.8281 11.81 5.8281 10.05 0 16.39-8.6719 16.39-18.145 0-9.7617-6.2-17.988-16.47-17.988-4.66 0-8.96 2.0468-11.73 5.75h-0.15v-24.039h-5.82v53.48h5.82v-4.8867"/><path d="m1230.2 36.719c0-6.7032 3.93-13.043 11.22-13.043 7.5 0 11.44 6.0469 11.44 12.969 0 6.8477-4.3 12.383-11.51 12.383-6.77 0-11.15-5.8984-11.15-12.308zm28.19-17.484h-5.83v4.7304h-0.14c-2.99-3.789-6.99-5.6757-11.8-5.6757-10.06 0-16.39 8.5195-16.39 17.988 0 9.7657 6.19 18.145 16.46 18.145 4.66 0 8.89-2.1875 11.73-5.8281h0.14v4.8867h5.83v-34.246"/><path d="m1274.7 49.75h0.15c2.04 2.7109 3.79 4.6719 7.57 4.6719 1.98 0 3.58-0.6602 5.25-1.6094l-2.76-5.3203c-1.17 0.8086-1.98 1.5351-3.51 1.5351-6.4 0-6.7-8.2226-6.7-12.68v-17.113h-5.83v34.246h5.83v-3.7305"/><path d="m1301.2 19.234h-5.83v28.848h-3.57v5.3985h3.57v12.301h5.83v-12.301h6.12v-5.3985h-6.12v-28.848"/><path d="m1318.3 49.75h0.15c1.81 2.8516 4.73 4.6719 8.23 4.6719 4 0 7.64-2.1211 9.47-5.6875 2.04 3.7929 6.11 5.6875 10.27 5.6875 8.74 0 10.92-7.1446 10.92-14.356v-20.832h-5.83v19.887c0 4.4492-0.28 9.9062-6.26 9.9062-6.7 0-7.42-6.4804-7.42-11.664v-18.129h-5.83v19.445c0 4.2305-0.51 10.348-6.13 10.348-6.84 0-7.57-6.9218-7.57-12.09v-17.703h-5.83v34.246h5.83v-3.7305"/><path d="m1392.1 40.066c-0.8 4.9531-4.95 8.9609-10.05 8.9609-5.02 0-9.69-4.0078-10.42-8.9609h20.47zm-20.75-4.957c0.06-6.3399 4.58-11.434 11.21-11.434 4.96 0 8.16 2.9844 10.42 7.0664l4.95-2.8359c-3.28-6.1211-8.81-9.6172-15.81-9.6172-10.19 0-16.75 7.789-16.75 17.625 0 10.129 5.9 18.508 16.6 18.508 11.01 0 16.83-9.1055 16.25-19.312h-26.87"/><path d="m1412.1 49.32h0.14c2.4 3.2813 5.54 5.1016 9.76 5.1016 9.47 0 11.66-6.8516 11.66-14.859v-20.328h-5.83v19.312c0 5.5351-0.43 10.48-7.21 10.48-8.02 0-8.52-7.4335-8.52-13.543v-16.25h-5.83v34.246h5.83v-4.1602"/><path d="m1450.8 19.234h-5.83v28.848h-3.58v5.3985h3.58v12.301h5.83v-12.301h6.12v-5.3985h-6.12v-28.848"/><path d="m1487.4 36.348c0-6.9883 4.96-12.672 12.17-12.672s12.16 5.6836 12.16 12.672c0 6.9296-4.95 12.68-12.16 12.68s-12.17-5.75-12.17-12.68zm-5.82-0.0704c0 10.059 7.93 18.145 17.99 18.145 10.05 0 17.98-8.086 17.98-18.145 0-10.058-8-17.988-17.98-17.988s-17.99 7.9297-17.99 17.988"/><path d="m1531.9 19.234h-5.83v28.848h-3.2v5.3985h3.2v13.621c0 2.8359 0 6.4062 1.53 8.8867 1.9 3.0547 5.32 4.3008 8.82 4.3008 1.38 0 2.76-0.293 4.15-0.7344v-5.8984c-1.31 0.4296-2.48 0.8046-3.94 0.8046-4.73 0-4.73-3.3554-4.73-9.3984v-11.582h8.67v-5.3985h-8.67v-28.848"/><path d="m1609.9 62.133c-4.37 4.5274-10.42 7.293-16.76 7.293-12.23 0-22.14-10.641-22.14-22.727 0-12.102 9.97-22.734 22.29-22.734 6.19 0 12.24 2.9219 16.61 7.293v-7.582c-4.73-3.4258-10.56-5.3867-16.39-5.3867-15.51 0-28.63 12.602-28.63 28.184 0 15.738 12.89 28.633 28.63 28.633 6.12 0 11.5-1.7422 16.39-5.3867v-7.586"/><path d="m1623 36.348c0-6.9883 4.95-12.672 12.16-12.672 7.2 0 12.16 5.6836 12.16 12.672 0 6.9296-4.96 12.68-12.16 12.68-7.21 0-12.16-5.75-12.16-12.68zm-5.83-0.0704c0 10.059 7.93 18.145 17.99 18.145 10.05 0 17.99-8.086 17.99-18.145 0-10.058-8.01-17.988-17.99-17.988s-17.99 7.9297-17.99 17.988"/><path d="m1667 49.75h0.15c1.82 2.8516 4.73 4.6719 8.24 4.6719 4 0 7.64-2.1211 9.46-5.6875 2.05 3.7929 6.12 5.6875 10.27 5.6875 8.74 0 10.93-7.1446 10.93-14.356v-20.832h-5.83v19.887c0 4.4492-0.29 9.9062-6.26 9.9062-6.7 0-7.44-6.4804-7.44-11.664v-18.129h-5.83v19.445c0 4.2305-0.51 10.348-6.11 10.348-6.85 0-7.58-6.9218-7.58-12.09v-17.703h-5.82v34.246h5.82v-3.7305"/><path d="m1722.9 49.75h0.14c1.83 2.8516 4.74 4.6719 8.24 4.6719 4 0 7.65-2.1211 9.47-5.6875 2.04 3.7929 6.12 5.6875 10.27 5.6875 8.74 0 10.93-7.1446 10.93-14.356v-20.832h-5.82v19.887c0 4.4492-0.3 9.9062-6.27 9.9062-6.71 0-7.44-6.4804-7.44-11.664v-18.129h-5.82v19.445c0 4.2305-0.51 10.348-6.13 10.348-6.83 0-7.57-6.9218-7.57-12.09v-17.703h-5.83v34.246h5.83v-3.7305"/><path d="m1796.7 40.066c-0.81 4.9531-4.95 8.9609-10.06 8.9609-5.02 0-9.68-4.0078-10.41-8.9609h20.47zm-20.76-4.957c0.07-6.3399 4.59-11.434 11.21-11.434 4.96 0 8.17 2.9844 10.42 7.0664l4.96-2.8359c-3.28-6.1211-8.82-9.6172-15.81-9.6172-10.2 0-16.76 7.789-16.76 17.625 0 10.129 5.9 18.508 16.62 18.508 10.99 0 16.82-9.1055 16.23-19.312h-26.87"/><path d="m1816.4 49.75h0.15c2.05 2.7109 3.79 4.6719 7.58 4.6719 1.97 0 3.57-0.6602 5.24-1.6094l-2.76-5.3203c-1.16 0.8086-1.97 1.5351-3.5 1.5351-6.4 0-6.71-8.2226-6.71-12.68v-17.113h-5.83v34.246h5.83v-3.7305"/><path d="m1860.7 43.277h-0.14c-2.7 3.4219-6.05 5.75-10.65 5.75-7.05 0-12.08-5.8359-12.08-12.68 0-6.7735 4.66-12.672 11.79-12.672 4.89 0 8.32 2.1914 11.16 5.8984h0.14v-7.789c-3.35-2.2539-6.78-3.4961-10.85-3.4961-10.34 0-18.22 7.7148-18.22 18.059 0 10.207 8.23 18.074 18.28 18.074 3.72 0 7.51-1.2344 10.57-3.4258v-7.7188"/><path d="m1893.6 40.066c-0.81 4.9531-4.96 8.9609-10.06 8.9609-5.03 0-9.69-4.0078-10.42-8.9609h20.48zm-20.77-4.957c0.07-6.3399 4.58-11.434 11.22-11.434 4.96 0 8.15 2.9844 10.41 7.0664l4.95-2.8359c-3.27-6.1211-8.81-9.6172-15.81-9.6172-10.19 0-16.74 7.789-16.74 17.625 0 10.129 5.89 18.508 16.61 18.508 10.99 0 16.82-9.1055 16.24-19.312h-26.88"/><path d="m49.02 17.129h-49.02v189.29c0-0.211 0 35.711 35.867 47.672 32.348 10.375 53.988-10.527 54.016-10.449l161.61-174.76c8.117-5.0117 11.41 0.1953 11.34 4.9961v180.21h49.473v-187.93c-0.211-16.004-13.453-35.867-32.211-43.59-19.238-7.4687-40.356-7.4141-65.367 13.629l-151.17 164.31c-3.9766 4.273-14.367 4.746-14.531-3.625v-179.75"/><path d="m344.09 254.09h49.473v-169.79c-0.153-18.07 14.964-18.07 29.949-18.144h219.71c9.179 0.0742 19.586 10.879 19.523 21.773 0.063 11.32-10.539 22.754-20.437 22.699h-142.98c-24.59-0.899-75.632 21.805-75.812 69.914 0.18 58.742 48.402 72 70.383 73.543h404.45v-49.938h-101.25v-187.02h-49.024v187.02h-247.85c-23.598 2.055-40.606-38.613-1.813-44.492h152.07c22.848 0.203 60.668-19.672 60.821-69-0.153-49.949-29.453-73.598-60.821-73.527h-224.7c-37.097-0.0703-50.414 8.3789-63.555 20.879-12.171 12.02-14.21 18.77-18.144 43.582v172.5"/></g></g></svg>
