<?xml version="1.0" encoding="UTF-8"?>
<svg width="112.3" height="32.35" version="1.1" viewBox="0 0 112.3 32.349998" xml:space="preserve" xmlns="http://www.w3.org/2000/svg" xmlns:cc="http://creativecommons.org/ns#" xmlns:dc="http://purl.org/dc/elements/1.1/" xmlns:rdf="http://www.w3.org/1999/02/22-rdf-syntax-ns#"><metadata><rdf:RDF><cc:Work rdf:about=""><dc:format>image/svg+xml</dc:format><dc:type rdf:resource="http://purl.org/dc/dcmitype/StillImage"/><dc:title/></cc:Work></rdf:RDF></metadata><g transform="matrix(1.25,0,0,-1.25,0,32.35)" fill="#fff"><path d="m4.902 1.7129h-4.902v18.929c0-0.0211 0 3.5711 3.5867 4.7672 3.2348 1.0375 5.3988-1.0527 5.4016-1.0449l16.161-17.476c0.8117-0.50117 1.141 0.01953 1.134 0.49961v18.021h4.9473v-18.793c-0.0211-1.6004-1.3453-3.5867-3.2211-4.359-1.9238-0.74687-4.0356-0.74141-6.5367 1.3629l-15.117 16.431c-0.39766 0.4273-1.4367 0.4746-1.4531-0.3625v-17.975"/><path d="m34.409 25.409h4.9473v-16.979c-0.0153-1.807 1.4964-1.807 2.9949-1.8144h21.971c0.9179 0.00742 1.9586 1.0879 1.9523 2.1773 0.0063 1.132-1.0539 2.2754-2.0437 2.2699h-14.298c-2.459-0.0899-7.5632 2.1805-7.5812 6.9914 0.018 5.8742 4.8402 7.2 7.0383 7.3543h40.445v-4.9938h-10.125v-18.702h-4.9024v18.702h-24.785c-2.3598 0.2055-4.0606-3.8613-0.1813-4.4492h15.207c2.2848 0.0203 6.0668-1.9672 6.0821-6.9-0.0153-4.9949-2.9453-7.3598-6.0821-7.3527h-22.47c-3.7097-0.00703-5.0414 0.83789-6.3555 2.0879-1.2171 1.202-1.421 1.877-1.8144 4.3582v17.25"/></g></svg>
